<svg width="135" height="80" viewBox="0 0 189 100" fill="none" xmlns="http://www.w3.org/2000/svg">
<rect x="59.5" y="1.5" width="69" height="69" rx="34.5" stroke="#0C68F4" stroke-width="3"/>
<path d="M94 49C89.32 49 85.5 45.18 85.5 40.5C85.5 39.68 86.18 39 87 39C87.82 39 88.5 39.68 88.5 40.5C88.5 43.54 90.96 46 94 46C97.04 46 99.5 43.54 99.5 40.5C99.5 39.68 100.18 39 101 39C101.82 39 102.5 39.68 102.5 40.5C102.5 45.18 98.68 49 94 49Z" fill="#0C68F4"/>
<path d="M80.3798 24.7599C79.9998 24.7599 79.5998 24.5999 79.3198 24.3199C78.7398 23.7399 78.7398 22.7799 79.3198 22.1999L86.5798 14.9399C87.1598 14.3599 88.1198 14.3599 88.6998 14.9399C89.2798 15.5199 89.2798 16.4799 88.6998 17.0599L81.4398 24.3199C81.1398 24.5999 80.7598 24.7599 80.3798 24.7599Z" fill="#0C68F4"/>
<path d="M107.62 24.7599C107.24 24.7599 106.86 24.6199 106.56 24.3199L99.3002 17.0599C98.7202 16.4799 98.7202 15.5199 99.3002 14.9399C99.8802 14.3599 100.84 14.3599 101.42 14.9399L108.68 22.1999C109.26 22.7799 109.26 23.7399 108.68 24.3199C108.4 24.5999 108 24.7599 107.62 24.7599Z" fill="#0C68F4"/>
<path d="M110.42 33.2C110.28 33.2 110.14 33.2 110 33.2H109.54H78C76.6 33.22 75 33.22 73.84 32.06C72.92 31.16 72.5 29.76 72.5 27.7C72.5 22.2 76.52 22.2 78.44 22.2H109.56C111.48 22.2 115.5 22.2 115.5 27.7C115.5 29.78 115.08 31.16 114.16 32.06C113.12 33.1 111.72 33.2 110.42 33.2ZM78.44 30.2H110.02C110.92 30.22 111.76 30.22 112.04 29.94C112.18 29.8 112.48 29.32 112.48 27.7C112.48 25.44 111.92 25.2 109.54 25.2H78.44C76.06 25.2 75.5 25.44 75.5 27.7C75.5 29.32 75.82 29.8 75.94 29.94C76.22 30.2 77.08 30.2 77.96 30.2H78.44Z" fill="#0C68F4"/>
<path d="M99.7795 57.5H87.7195C80.5595 57.5 78.9595 53.24 78.3395 49.54L75.5195 32.24C75.3795 31.42 75.9395 30.66 76.7595 30.52C77.5595 30.38 78.3395 30.94 78.4795 31.76L81.2995 49.04C81.8795 52.58 83.0795 54.5 87.7195 54.5H99.7795C104.92 54.5 105.5 52.7 106.16 49.22L109.52 31.72C109.68 30.9 110.46 30.36 111.28 30.54C112.1 30.7 112.62 31.48 112.46 32.3L109.1 49.8C108.32 53.86 107.02 57.5 99.7795 57.5Z" fill="#0C68F4"/>
<path d="M132 36H188" stroke="#78ABF9" stroke-width="1.5" stroke-linecap="round"/>
<path d="M83.6399 94.1818C82.8217 94.1818 82.1172 93.9886 81.5263 93.6023C80.9354 93.2159 80.4808 92.6837 80.1626 92.0057C79.8445 91.3277 79.6854 90.553 79.6854 89.6818C79.6854 88.7955 79.8482 88.0133 80.174 87.3352C80.5036 86.6534 80.9619 86.1212 81.549 85.7386C82.1399 85.3523 82.8293 85.1591 83.6172 85.1591C84.2308 85.1591 84.7839 85.2727 85.2763 85.5C85.7687 85.7273 86.1721 86.0455 86.4865 86.4545C86.8009 86.8636 86.996 87.3409 87.0717 87.8864H85.7308C85.6286 87.4886 85.4013 87.1364 85.049 86.8295C84.7005 86.5189 84.2308 86.3636 83.6399 86.3636C83.1172 86.3636 82.6589 86.5 82.2649 86.7727C81.8748 87.0417 81.5698 87.4223 81.3501 87.9148C81.1342 88.4034 81.0263 88.9773 81.0263 89.6364C81.0263 90.3106 81.1323 90.8977 81.3445 91.3977C81.5604 91.8977 81.8634 92.286 82.2536 92.5625C82.6475 92.839 83.1096 92.9773 83.6399 92.9773C83.9884 92.9773 84.3047 92.9167 84.5888 92.7955C84.8729 92.6742 85.1134 92.5 85.3104 92.2727C85.5073 92.0455 85.6475 91.7727 85.7308 91.4545H87.0717C86.996 91.9697 86.8085 92.4337 86.5092 92.8466C86.2138 93.2557 85.8217 93.5814 85.3331 93.8239C84.8482 94.0625 84.2839 94.1818 83.6399 94.1818ZM91.6001 94.2045C91.0471 94.2045 90.5452 94.1004 90.0945 93.892C89.6437 93.6799 89.2857 93.375 89.0206 92.9773C88.7554 92.5758 88.6229 92.0909 88.6229 91.5227C88.6229 91.0227 88.7214 90.6174 88.9183 90.3068C89.1153 89.9924 89.3786 89.7462 89.7081 89.5682C90.0376 89.3902 90.4013 89.2576 90.799 89.1705C91.2005 89.0795 91.6039 89.0076 92.0092 88.9545C92.5395 88.8864 92.9695 88.8352 93.299 88.8011C93.6323 88.7633 93.8748 88.7008 94.0263 88.6136C94.1816 88.5265 94.2592 88.375 94.2592 88.1591V88.1136C94.2592 87.553 94.1058 87.1174 93.799 86.8068C93.496 86.4962 93.0357 86.3409 92.4183 86.3409C91.7782 86.3409 91.2763 86.4811 90.9126 86.7614C90.549 87.0417 90.2933 87.3409 90.1456 87.6591L88.8729 87.2045C89.1001 86.6742 89.4032 86.2614 89.782 85.9659C90.1645 85.6667 90.5812 85.4583 91.032 85.3409C91.4865 85.2197 91.9335 85.1591 92.3729 85.1591C92.6532 85.1591 92.9751 85.1932 93.3388 85.2614C93.7062 85.3258 94.0604 85.4602 94.4013 85.6648C94.746 85.8693 95.032 86.178 95.2592 86.5909C95.4865 87.0038 95.6001 87.5568 95.6001 88.25V94H94.2592V92.8182H94.1911C94.1001 93.0076 93.9486 93.2102 93.7365 93.4261C93.5244 93.642 93.2422 93.8258 92.8899 93.9773C92.5376 94.1288 92.1077 94.2045 91.6001 94.2045ZM91.8047 93C92.335 93 92.782 92.8958 93.1456 92.6875C93.513 92.4792 93.7895 92.2102 93.9751 91.8807C94.1645 91.5511 94.2592 91.2045 94.2592 90.8409V89.6136C94.2024 89.6818 94.0774 89.7443 93.8842 89.8011C93.6948 89.8542 93.4751 89.9015 93.2251 89.9432C92.9789 89.9811 92.7384 90.0152 92.5036 90.0455C92.2725 90.072 92.085 90.0947 91.9411 90.1136C91.5926 90.1591 91.2668 90.233 90.9638 90.3352C90.6645 90.4337 90.4221 90.5833 90.2365 90.7841C90.0547 90.9811 89.9638 91.25 89.9638 91.5909C89.9638 92.0568 90.1361 92.4091 90.4808 92.6477C90.8293 92.8826 91.2706 93 91.8047 93ZM98.0476 94V85.2727H99.343V86.5909H99.4339C99.593 86.1591 99.8809 85.8087 100.298 85.5398C100.714 85.2708 101.184 85.1364 101.707 85.1364C101.805 85.1364 101.928 85.1383 102.076 85.142C102.224 85.1458 102.335 85.1515 102.411 85.1591V86.5227C102.366 86.5114 102.262 86.4943 102.099 86.4716C101.94 86.4451 101.771 86.4318 101.593 86.4318C101.169 86.4318 100.79 86.5208 100.457 86.6989C100.127 86.8731 99.8658 87.1155 99.6726 87.4261C99.4832 87.733 99.3885 88.0833 99.3885 88.4773V94H98.0476ZM108.343 85.2727V86.4091H103.82V85.2727H108.343ZM105.138 83.1818H106.479V91.5C106.479 91.8788 106.534 92.1629 106.644 92.3523C106.758 92.5379 106.902 92.6629 107.076 92.7273C107.254 92.7879 107.442 92.8182 107.638 92.8182C107.786 92.8182 107.907 92.8106 108.002 92.7955C108.097 92.7765 108.173 92.7614 108.229 92.75L108.502 93.9545C108.411 93.9886 108.284 94.0227 108.121 94.0568C107.959 94.0947 107.752 94.1136 107.502 94.1136C107.123 94.1136 106.752 94.0322 106.388 93.8693C106.029 93.7064 105.729 93.4583 105.491 93.125C105.256 92.7917 105.138 92.3712 105.138 91.8636V83.1818Z" fill="#0C68F4"/>
</svg>
