<svg width="135" height="80" viewBox="0 0 165 76" fill="none" xmlns="http://www.w3.org/2000/svg">
<rect x="58" width="48" height="48" rx="24" fill="#78ABF9"/>
<path d="M82.0007 32.6667C78.8807 32.6667 76.334 30.12 76.334 27C76.334 26.4533 76.7873 26 77.334 26C77.8807 26 78.334 26.4533 78.334 27C78.334 29.0267 79.974 30.6667 82.0007 30.6667C84.0273 30.6667 85.6673 29.0267 85.6673 27C85.6673 26.4533 86.1207 26 86.6673 26C87.214 26 87.6673 26.4533 87.6673 27C87.6673 30.12 85.1207 32.6667 82.0007 32.6667Z" fill="white"/>
<path d="M72.9205 16.5066C72.6672 16.5066 72.4005 16.3999 72.2138 16.2133C71.8272 15.8266 71.8272 15.1866 72.2138 14.7999L77.0538 9.95992C77.4405 9.57326 78.0805 9.57326 78.4672 9.95992C78.8538 10.3466 78.8538 10.9866 78.4672 11.3733L73.6272 16.2133C73.4272 16.3999 73.1738 16.5066 72.9205 16.5066Z" fill="white"/>
<path d="M91.0808 16.5066C90.8275 16.5066 90.5741 16.4133 90.3741 16.2133L85.5341 11.3733C85.1475 10.9866 85.1475 10.3466 85.5341 9.95992C85.9208 9.57326 86.5608 9.57326 86.9475 9.95992L91.7875 14.7999C92.1741 15.1866 92.1741 15.8266 91.7875 16.2133C91.6008 16.3999 91.3341 16.5066 91.0808 16.5066Z" fill="white"/>
<path d="M92.946 22.1334C92.8527 22.1334 92.7593 22.1334 92.666 22.1334H92.3594H71.3327C70.3993 22.1467 69.3327 22.1467 68.5593 21.3734C67.946 20.7734 67.666 19.84 67.666 18.4667C67.666 14.8 70.346 14.8 71.626 14.8H92.3727C93.6527 14.8 96.3327 14.8 96.3327 18.4667C96.3327 19.8534 96.0527 20.7734 95.4394 21.3734C94.746 22.0667 93.8127 22.1334 92.946 22.1334ZM71.626 20.1334H92.6793C93.2794 20.1467 93.8393 20.1467 94.026 19.96C94.1194 19.8667 94.3193 19.5467 94.3193 18.4667C94.3193 16.96 93.946 16.8 92.3594 16.8H71.626C70.0393 16.8 69.666 16.96 69.666 18.4667C69.666 19.5467 69.8793 19.8667 69.9593 19.96C70.146 20.1334 70.7193 20.1334 71.306 20.1334H71.626Z" fill="white"/>
<path d="M85.8537 38.3333H77.8137C73.0403 38.3333 71.9737 35.4933 71.5603 33.0266L69.6803 21.4932C69.587 20.9466 69.9603 20.4399 70.507 20.3466C71.0403 20.2533 71.5603 20.6266 71.6537 21.1733L73.5337 32.6933C73.9203 35.0533 74.7203 36.3333 77.8137 36.3333H85.8537C89.2803 36.3333 89.667 35.1333 90.107 32.8133L92.347 21.1466C92.4537 20.5999 92.9737 20.2399 93.5203 20.3599C94.067 20.4666 94.4137 20.9866 94.307 21.5332L92.067 33.1999C91.547 35.9066 90.6803 38.3333 85.8537 38.3333Z" fill="white"/>
<path d="M108 24H164" stroke="#78ABF9" stroke-width="1.5" stroke-linecap="round"/>
<path d="M71.6399 70.1818C70.8217 70.1818 70.1172 69.9886 69.5263 69.6023C68.9354 69.2159 68.4808 68.6837 68.1626 68.0057C67.8445 67.3277 67.6854 66.553 67.6854 65.6818C67.6854 64.7955 67.8482 64.0133 68.174 63.3352C68.5036 62.6534 68.9619 62.1212 69.549 61.7386C70.1399 61.3523 70.8293 61.1591 71.6172 61.1591C72.2308 61.1591 72.7839 61.2727 73.2763 61.5C73.7687 61.7273 74.1721 62.0455 74.4865 62.4545C74.8009 62.8636 74.996 63.3409 75.0717 63.8864H73.7308C73.6286 63.4886 73.4013 63.1364 73.049 62.8295C72.7005 62.5189 72.2308 62.3636 71.6399 62.3636C71.1172 62.3636 70.6589 62.5 70.2649 62.7727C69.8748 63.0417 69.5698 63.4223 69.3501 63.9148C69.1342 64.4034 69.0263 64.9773 69.0263 65.6364C69.0263 66.3106 69.1323 66.8977 69.3445 67.3977C69.5604 67.8977 69.8634 68.286 70.2536 68.5625C70.6475 68.839 71.1096 68.9773 71.6399 68.9773C71.9884 68.9773 72.3047 68.9167 72.5888 68.7955C72.8729 68.6742 73.1134 68.5 73.3104 68.2727C73.5073 68.0455 73.6475 67.7727 73.7308 67.4545H75.0717C74.996 67.9697 74.8085 68.4337 74.5092 68.8466C74.2138 69.2557 73.8217 69.5814 73.3331 69.8239C72.8482 70.0625 72.2839 70.1818 71.6399 70.1818ZM79.6001 70.2045C79.0471 70.2045 78.5452 70.1004 78.0945 69.892C77.6437 69.6799 77.2857 69.375 77.0206 68.9773C76.7554 68.5758 76.6229 68.0909 76.6229 67.5227C76.6229 67.0227 76.7214 66.6174 76.9183 66.3068C77.1153 65.9924 77.3786 65.7462 77.7081 65.5682C78.0376 65.3902 78.4013 65.2576 78.799 65.1705C79.2005 65.0795 79.6039 65.0076 80.0092 64.9545C80.5395 64.8864 80.9695 64.8352 81.299 64.8011C81.6323 64.7633 81.8748 64.7008 82.0263 64.6136C82.1816 64.5265 82.2592 64.375 82.2592 64.1591V64.1136C82.2592 63.553 82.1058 63.1174 81.799 62.8068C81.496 62.4962 81.0357 62.3409 80.4183 62.3409C79.7782 62.3409 79.2763 62.4811 78.9126 62.7614C78.549 63.0417 78.2933 63.3409 78.1456 63.6591L76.8729 63.2045C77.1001 62.6742 77.4032 62.2614 77.782 61.9659C78.1645 61.6667 78.5812 61.4583 79.032 61.3409C79.4865 61.2197 79.9335 61.1591 80.3729 61.1591C80.6532 61.1591 80.9751 61.1932 81.3388 61.2614C81.7062 61.3258 82.0604 61.4602 82.4013 61.6648C82.746 61.8693 83.032 62.178 83.2592 62.5909C83.4865 63.0038 83.6001 63.5568 83.6001 64.25V70H82.2592V68.8182H82.1911C82.1001 69.0076 81.9486 69.2102 81.7365 69.4261C81.5244 69.642 81.2422 69.8258 80.8899 69.9773C80.5376 70.1288 80.1077 70.2045 79.6001 70.2045ZM79.8047 69C80.335 69 80.782 68.8958 81.1456 68.6875C81.513 68.4792 81.7895 68.2102 81.9751 67.8807C82.1645 67.5511 82.2592 67.2045 82.2592 66.8409V65.6136C82.2024 65.6818 82.0774 65.7443 81.8842 65.8011C81.6948 65.8542 81.4751 65.9015 81.2251 65.9432C80.9789 65.9811 80.7384 66.0152 80.5036 66.0455C80.2725 66.072 80.085 66.0947 79.9411 66.1136C79.5926 66.1591 79.2668 66.233 78.9638 66.3352C78.6645 66.4337 78.4221 66.5833 78.2365 66.7841C78.0547 66.9811 77.9638 67.25 77.9638 67.5909C77.9638 68.0568 78.1361 68.4091 78.4808 68.6477C78.8293 68.8826 79.2706 69 79.8047 69ZM86.0476 70V61.2727H87.343V62.5909H87.4339C87.593 62.1591 87.8809 61.8087 88.2976 61.5398C88.7143 61.2708 89.1839 61.1364 89.7067 61.1364C89.8052 61.1364 89.9283 61.1383 90.076 61.142C90.2237 61.1458 90.3355 61.1515 90.4112 61.1591V62.5227C90.3658 62.5114 90.2616 62.4943 90.0987 62.4716C89.9396 62.4451 89.7711 62.4318 89.593 62.4318C89.1688 62.4318 88.79 62.5208 88.4567 62.6989C88.1271 62.8731 87.8658 63.1155 87.6726 63.4261C87.4832 63.733 87.3885 64.0833 87.3885 64.4773V70H86.0476ZM96.343 61.2727V62.4091H91.8203V61.2727H96.343ZM93.1385 59.1818H94.4794V67.5C94.4794 67.8788 94.5343 68.1629 94.6442 68.3523C94.7578 68.5379 94.9018 68.6629 95.076 68.7273C95.254 68.7879 95.4415 68.8182 95.6385 68.8182C95.7862 68.8182 95.9074 68.8106 96.0021 68.7955C96.0968 68.7765 96.1726 68.7614 96.2294 68.75L96.5021 69.9545C96.4112 69.9886 96.2843 70.0227 96.1214 70.0568C95.9586 70.0947 95.7521 70.1136 95.5021 70.1136C95.1233 70.1136 94.7521 70.0322 94.3885 69.8693C94.0286 69.7064 93.7294 69.4583 93.4908 69.125C93.2559 68.7917 93.1385 68.3712 93.1385 67.8636V59.1818Z" fill="#78ABF9"/>
</svg>
