<svg width="135" height="76" viewBox="0 0 166 76" fill="none" xmlns="http://www.w3.org/2000/svg">
<path d="M1 24H57" stroke="#78ABF9" stroke-width="1.5" stroke-linecap="round"/>
<rect x="59" width="48" height="48" rx="24" fill="#78ABF9"/>
<path d="M84.3327 27.6667H69.666C69.1193 27.6667 68.666 27.2134 68.666 26.6667V16.0001C68.666 12.5067 71.506 9.66675 74.9993 9.66675H86.9993C87.546 9.66675 87.9993 10.1201 87.9993 10.6667V24.0001C87.9993 26.0267 86.3593 27.6667 84.3327 27.6667ZM70.666 25.6667H84.3327C85.2527 25.6667 85.9993 24.9201 85.9993 24.0001V11.6667H74.9993C72.6127 11.6667 70.666 13.6134 70.666 16.0001V25.6667Z" fill="white"/>
<path d="M92.3327 35.6667H90.9993C90.4527 35.6667 89.9993 35.2134 89.9993 34.6667C89.9993 33.7467 89.2527 33.0001 88.3327 33.0001C87.4127 33.0001 86.666 33.7467 86.666 34.6667C86.666 35.2134 86.2127 35.6667 85.666 35.6667H80.3327C79.786 35.6667 79.3327 35.2134 79.3327 34.6667C79.3327 33.7467 78.586 33.0001 77.666 33.0001C76.746 33.0001 75.9993 33.7467 75.9993 34.6667C75.9993 35.2134 75.546 35.6667 74.9993 35.6667H73.666C70.906 35.6667 68.666 33.4267 68.666 30.6667V26.6667C68.666 26.1201 69.1193 25.6667 69.666 25.6667H84.3327C85.2527 25.6667 85.9993 24.9201 85.9993 24.0001V14.6667C85.9993 14.1201 86.4527 13.6667 86.9993 13.6667H89.4527C90.7727 13.6667 91.986 14.3734 92.6394 15.5201L94.9194 19.5068C95.0927 19.8134 95.0927 20.2001 94.9194 20.5068C94.746 20.8134 94.4127 21.0001 94.0527 21.0001H92.3327C92.146 21.0001 91.9993 21.1467 91.9993 21.3334V25.3334C91.9993 25.5201 92.146 25.6667 92.3327 25.6667H96.3327C96.8793 25.6667 97.3327 26.1201 97.3327 26.6667V30.6667C97.3327 33.4267 95.0927 35.6667 92.3327 35.6667ZM91.866 33.6667H92.3327C93.986 33.6667 95.3327 32.3201 95.3327 30.6667V27.6667H92.3327C91.0527 27.6667 89.9993 26.6134 89.9993 25.3334V21.3334C89.9993 20.0534 91.0393 19.0001 92.3327 19.0001L90.906 16.5068C90.6127 15.9868 90.0527 15.6667 89.4527 15.6667H87.9993V24.0001C87.9993 26.0267 86.3593 27.6667 84.3327 27.6667H70.666V30.6667C70.666 32.3201 72.0127 33.6667 73.666 33.6667H74.1327C74.5727 32.1334 75.986 31.0001 77.666 31.0001C79.346 31.0001 80.7593 32.1334 81.1993 33.6667H84.8127C85.2527 32.1334 86.666 31.0001 88.346 31.0001C90.026 31.0001 91.426 32.1334 91.866 33.6667Z" fill="white"/>
<path d="M77.6667 38.3333C75.64 38.3333 74 36.6933 74 34.6667C74 32.64 75.64 31 77.6667 31C79.6933 31 81.3333 32.64 81.3333 34.6667C81.3333 36.6933 79.6933 38.3333 77.6667 38.3333ZM77.6667 33C76.7467 33 76 33.7467 76 34.6667C76 35.5867 76.7467 36.3333 77.6667 36.3333C78.5867 36.3333 79.3333 35.5867 79.3333 34.6667C79.3333 33.7467 78.5867 33 77.6667 33Z" fill="white"/>
<path d="M88.3327 38.3333C86.306 38.3333 84.666 36.6933 84.666 34.6667C84.666 32.64 86.306 31 88.3327 31C90.3593 31 91.9993 32.64 91.9993 34.6667C91.9993 36.6933 90.3593 38.3333 88.3327 38.3333ZM88.3327 33C87.4127 33 86.666 33.7467 86.666 34.6667C86.666 35.5867 87.4127 36.3333 88.3327 36.3333C89.2527 36.3333 89.9993 35.5867 89.9993 34.6667C89.9993 33.7467 89.2527 33 88.3327 33Z" fill="white"/>
<path d="M96.3333 27.6667H92.3333C91.0533 27.6667 90 26.6133 90 25.3333V21.3333C90 20.0533 91.0533 19 92.3333 19H94.0533C94.4133 19 94.7467 19.1867 94.92 19.5067L97.2 23.5067C97.28 23.6533 97.3333 23.8267 97.3333 24V26.6667C97.3333 27.2133 96.88 27.6667 96.3333 27.6667ZM92.3333 21C92.1467 21 92 21.1467 92 21.3333V25.3333C92 25.52 92.1467 25.6667 92.3333 25.6667H95.3333V24.2667L93.4667 21H92.3333Z" fill="white"/>
<path d="M109 24H165" stroke="#78ABF9" stroke-width="1.5" stroke-linecap="round"/>
<path d="M57.6009 62H56.1918C56.1084 61.5947 55.9626 61.2386 55.7543 60.9318C55.5497 60.625 55.2997 60.3674 55.0043 60.1591C54.7126 59.947 54.3887 59.7879 54.0327 59.6818C53.6766 59.5758 53.3054 59.5227 52.919 59.5227C52.2145 59.5227 51.5762 59.7008 51.0043 60.0568C50.4361 60.4129 49.9834 60.9375 49.6463 61.6307C49.313 62.3239 49.1463 63.1742 49.1463 64.1818C49.1463 65.1894 49.313 66.0398 49.6463 66.733C49.9834 67.4261 50.4361 67.9508 51.0043 68.3068C51.5762 68.6629 52.2145 68.8409 52.919 68.8409C53.3054 68.8409 53.6766 68.7879 54.0327 68.6818C54.3887 68.5758 54.7126 68.4186 55.0043 68.2102C55.2997 67.9981 55.5497 67.7386 55.7543 67.4318C55.9626 67.1212 56.1084 66.7652 56.1918 66.3636H57.6009C57.4948 66.9583 57.3016 67.4905 57.0213 67.9602C56.741 68.4299 56.3925 68.8295 55.9759 69.1591C55.5592 69.4848 55.0914 69.733 54.5724 69.9034C54.0573 70.0739 53.5062 70.1591 52.919 70.1591C51.9266 70.1591 51.044 69.9167 50.2713 69.4318C49.4986 68.947 48.8906 68.2576 48.4474 67.3636C48.0043 66.4697 47.7827 65.4091 47.7827 64.1818C47.7827 62.9545 48.0043 61.8939 48.4474 61C48.8906 60.1061 49.4986 59.4167 50.2713 58.9318C51.044 58.447 51.9266 58.2045 52.919 58.2045C53.5062 58.2045 54.0573 58.2898 54.5724 58.4602C55.0914 58.6307 55.5592 58.8807 55.9759 59.2102C56.3925 59.536 56.741 59.9337 57.0213 60.4034C57.3016 60.8693 57.4948 61.4015 57.6009 62ZM61.0369 64.75V70H59.696V58.3636H61.0369V62.6364H61.1506C61.3551 62.1856 61.6619 61.8277 62.071 61.5625C62.4839 61.2936 63.0331 61.1591 63.7188 61.1591C64.3134 61.1591 64.8343 61.2784 65.2812 61.517C65.7282 61.7519 66.0748 62.1136 66.321 62.6023C66.571 63.0871 66.696 63.7045 66.696 64.4545V70H65.3551V64.5455C65.3551 63.8523 65.1752 63.3163 64.8153 62.9375C64.4593 62.5549 63.965 62.3636 63.3324 62.3636C62.893 62.3636 62.4991 62.4564 62.1506 62.642C61.8059 62.8277 61.5331 63.0985 61.3324 63.4545C61.1354 63.8106 61.0369 64.2424 61.0369 64.75ZM72.8082 70.1818C71.9673 70.1818 71.242 69.9962 70.6321 69.625C70.026 69.25 69.5582 68.7273 69.2287 68.0568C68.9029 67.3826 68.7401 66.5985 68.7401 65.7045C68.7401 64.8106 68.9029 64.0227 69.2287 63.3409C69.5582 62.6553 70.0166 62.1212 70.6037 61.7386C71.1946 61.3523 71.884 61.1591 72.6719 61.1591C73.1264 61.1591 73.5753 61.2348 74.0185 61.3864C74.4616 61.5379 74.8651 61.7841 75.2287 62.125C75.5923 62.4621 75.8821 62.9091 76.098 63.4659C76.3139 64.0227 76.4219 64.7083 76.4219 65.5227V66.0909H69.6946V64.9318H75.0582C75.0582 64.4394 74.9598 64 74.7628 63.6136C74.5696 63.2273 74.2931 62.9223 73.9332 62.6989C73.5772 62.4754 73.1567 62.3636 72.6719 62.3636C72.1378 62.3636 71.6757 62.4962 71.2855 62.7614C70.8991 63.0227 70.6018 63.3636 70.3935 63.7841C70.1851 64.2045 70.081 64.6553 70.081 65.1364V65.9091C70.081 66.5682 70.1946 67.1269 70.4219 67.5852C70.6529 68.0398 70.973 68.3864 71.3821 68.625C71.7912 68.8598 72.2666 68.9773 72.8082 68.9773C73.1605 68.9773 73.4787 68.928 73.7628 68.8295C74.0507 68.7273 74.2988 68.5758 74.5071 68.375C74.7154 68.1705 74.8764 67.9167 74.9901 67.6136L76.2855 67.9773C76.1491 68.4167 75.92 68.803 75.598 69.1364C75.276 69.4659 74.8783 69.7235 74.4048 69.9091C73.9313 70.0909 73.3991 70.1818 72.8082 70.1818ZM82.0071 70.1818C81.1889 70.1818 80.4844 69.9886 79.8935 69.6023C79.3026 69.2159 78.848 68.6837 78.5298 68.0057C78.2116 67.3277 78.0526 66.553 78.0526 65.6818C78.0526 64.7955 78.2154 64.0133 78.5412 63.3352C78.8707 62.6534 79.3291 62.1212 79.9162 61.7386C80.5071 61.3523 81.1965 61.1591 81.9844 61.1591C82.598 61.1591 83.151 61.2727 83.6435 61.5C84.1359 61.7273 84.5393 62.0455 84.8537 62.4545C85.1681 62.8636 85.3632 63.3409 85.4389 63.8864H84.098C83.9957 63.4886 83.7685 63.1364 83.4162 62.8295C83.0677 62.5189 82.598 62.3636 82.0071 62.3636C81.4844 62.3636 81.026 62.5 80.6321 62.7727C80.242 63.0417 79.937 63.4223 79.7173 63.9148C79.5014 64.4034 79.3935 64.9773 79.3935 65.6364C79.3935 66.3106 79.4995 66.8977 79.7116 67.3977C79.9276 67.8977 80.2306 68.286 80.6207 68.5625C81.0147 68.839 81.4768 68.9773 82.0071 68.9773C82.3556 68.9773 82.6719 68.9167 82.956 68.7955C83.2401 68.6742 83.4806 68.5 83.6776 68.2727C83.8745 68.0455 84.0147 67.7727 84.098 67.4545H85.4389C85.3632 67.9697 85.1757 68.4337 84.8764 68.8466C84.581 69.2557 84.1889 69.5814 83.7003 69.8239C83.2154 70.0625 82.651 70.1818 82.0071 70.1818ZM88.6491 66.8182L88.6264 65.1591H88.8991L92.7173 61.2727H94.3764L90.3082 65.3864H90.1946L88.6491 66.8182ZM87.3991 70V58.3636H88.7401V70H87.3991ZM92.9446 70L89.5355 65.6818L90.4901 64.75L94.6491 70H92.9446ZM99.2884 70.1818C98.5005 70.1818 97.8092 69.9943 97.2145 69.6193C96.6236 69.2443 96.1615 68.7197 95.8281 68.0455C95.4986 67.3712 95.3338 66.5833 95.3338 65.6818C95.3338 64.7727 95.4986 63.9792 95.8281 63.3011C96.1615 62.6231 96.6236 62.0966 97.2145 61.7216C97.8092 61.3466 98.5005 61.1591 99.2884 61.1591C100.076 61.1591 100.766 61.3466 101.357 61.7216C101.951 62.0966 102.413 62.6231 102.743 63.3011C103.076 63.9792 103.243 64.7727 103.243 65.6818C103.243 66.5833 103.076 67.3712 102.743 68.0455C102.413 68.7197 101.951 69.2443 101.357 69.6193C100.766 69.9943 100.076 70.1818 99.2884 70.1818ZM99.2884 68.9773C99.8868 68.9773 100.379 68.8239 100.766 68.517C101.152 68.2102 101.438 67.8068 101.624 67.3068C101.809 66.8068 101.902 66.2652 101.902 65.6818C101.902 65.0985 101.809 64.5549 101.624 64.0511C101.438 63.5473 101.152 63.1402 100.766 62.8295C100.379 62.5189 99.8868 62.3636 99.2884 62.3636C98.6899 62.3636 98.1974 62.5189 97.8111 62.8295C97.4247 63.1402 97.1387 63.5473 96.9531 64.0511C96.7675 64.5549 96.6747 65.0985 96.6747 65.6818C96.6747 66.2652 96.7675 66.8068 96.9531 67.3068C97.1387 67.8068 97.4247 68.2102 97.8111 68.517C98.1974 68.8239 98.6899 68.9773 99.2884 68.9773ZM110.79 66.4318V61.2727H112.131V70H110.79V68.5227H110.699C110.494 68.9659 110.176 69.3428 109.744 69.6534C109.313 69.9602 108.767 70.1136 108.108 70.1136C107.562 70.1136 107.078 69.9943 106.653 69.7557C106.229 69.5133 105.896 69.1496 105.653 68.6648C105.411 68.1761 105.29 67.5606 105.29 66.8182V61.2727H106.631V66.7273C106.631 67.3636 106.809 67.8712 107.165 68.25C107.525 68.6288 107.983 68.8182 108.54 68.8182C108.873 68.8182 109.212 68.733 109.557 68.5625C109.905 68.392 110.197 68.1307 110.432 67.7784C110.67 67.4261 110.79 66.9773 110.79 66.4318ZM118.382 61.2727V62.4091H113.859V61.2727H118.382ZM115.178 59.1818H116.518V67.5C116.518 67.8788 116.573 68.1629 116.683 68.3523C116.797 68.5379 116.941 68.6629 117.115 68.7273C117.293 68.7879 117.481 68.8182 117.678 68.8182C117.825 68.8182 117.946 68.8106 118.041 68.7955C118.136 68.7765 118.212 68.7614 118.268 68.75L118.541 69.9545C118.45 69.9886 118.323 70.0227 118.161 70.0568C117.998 70.0947 117.791 70.1136 117.541 70.1136C117.162 70.1136 116.791 70.0322 116.428 69.8693C116.068 69.7064 115.768 69.4583 115.53 69.125C115.295 68.7917 115.178 68.3712 115.178 67.8636V59.1818Z" fill="#78ABF9"/>
</svg>
