<svg width="166" height="69" viewBox="0 0 166 69" fill="none" xmlns="http://www.w3.org/2000/svg">
<path d="M1 24H57" stroke="#9E9E9E" stroke-width="1.5" stroke-linecap="round"/>
<rect x="59" width="48" height="48" rx="24" fill="#9E9E9E"/>
<path d="M84.3327 27.6667H69.666C69.1193 27.6667 68.666 27.2134 68.666 26.6667V16.0001C68.666 12.5067 71.506 9.66675 74.9993 9.66675H86.9993C87.546 9.66675 87.9993 10.1201 87.9993 10.6667V24.0001C87.9993 26.0267 86.3594 27.6667 84.3327 27.6667ZM70.666 25.6667H84.3327C85.2527 25.6667 85.9993 24.9201 85.9993 24.0001V11.6667H74.9993C72.6127 11.6667 70.666 13.6134 70.666 16.0001V25.6667Z" fill="white"/>
<path d="M92.3327 35.6667H90.9993C90.4527 35.6667 89.9993 35.2134 89.9993 34.6667C89.9993 33.7467 89.2527 33.0001 88.3327 33.0001C87.4127 33.0001 86.666 33.7467 86.666 34.6667C86.666 35.2134 86.2127 35.6667 85.666 35.6667H80.3327C79.786 35.6667 79.3327 35.2134 79.3327 34.6667C79.3327 33.7467 78.586 33.0001 77.666 33.0001C76.746 33.0001 75.9993 33.7467 75.9993 34.6667C75.9993 35.2134 75.546 35.6667 74.9993 35.6667H73.666C70.906 35.6667 68.666 33.4267 68.666 30.6667V26.6667C68.666 26.1201 69.1193 25.6667 69.666 25.6667H84.3327C85.2527 25.6667 85.9993 24.9201 85.9993 24.0001V14.6667C85.9993 14.1201 86.4527 13.6667 86.9993 13.6667H89.4527C90.7727 13.6667 91.986 14.3734 92.6394 15.5201L94.9194 19.5068C95.0927 19.8134 95.0927 20.2001 94.9194 20.5068C94.746 20.8134 94.4127 21.0001 94.0527 21.0001H92.3327C92.146 21.0001 91.9993 21.1467 91.9993 21.3334V25.3334C91.9993 25.5201 92.146 25.6667 92.3327 25.6667H96.3327C96.8794 25.6667 97.3327 26.1201 97.3327 26.6667V30.6667C97.3327 33.4267 95.0927 35.6667 92.3327 35.6667ZM91.866 33.6667H92.3327C93.986 33.6667 95.3327 32.3201 95.3327 30.6667V27.6667H92.3327C91.0527 27.6667 89.9993 26.6134 89.9993 25.3334V21.3334C89.9993 20.0534 91.0394 19.0001 92.3327 19.0001L90.906 16.5068C90.6127 15.9868 90.0527 15.6667 89.4527 15.6667H87.9993V24.0001C87.9993 26.0267 86.3594 27.6667 84.3327 27.6667H70.666V30.6667C70.666 32.3201 72.0127 33.6667 73.666 33.6667H74.1327C74.5727 32.1334 75.986 31.0001 77.666 31.0001C79.346 31.0001 80.7593 32.1334 81.1993 33.6667H84.8127C85.2527 32.1334 86.666 31.0001 88.346 31.0001C90.026 31.0001 91.426 32.1334 91.866 33.6667Z" fill="white"/>
<path d="M77.6667 38.3333C75.64 38.3333 74 36.6933 74 34.6667C74 32.64 75.64 31 77.6667 31C79.6933 31 81.3333 32.64 81.3333 34.6667C81.3333 36.6933 79.6933 38.3333 77.6667 38.3333ZM77.6667 33C76.7467 33 76 33.7467 76 34.6667C76 35.5867 76.7467 36.3333 77.6667 36.3333C78.5867 36.3333 79.3333 35.5867 79.3333 34.6667C79.3333 33.7467 78.5867 33 77.6667 33Z" fill="white"/>
<path d="M88.3327 38.3333C86.306 38.3333 84.666 36.6933 84.666 34.6667C84.666 32.64 86.306 31 88.3327 31C90.3593 31 91.9993 32.64 91.9993 34.6667C91.9993 36.6933 90.3593 38.3333 88.3327 38.3333ZM88.3327 33C87.4127 33 86.666 33.7467 86.666 34.6667C86.666 35.5867 87.4127 36.3333 88.3327 36.3333C89.2527 36.3333 89.9993 35.5867 89.9993 34.6667C89.9993 33.7467 89.2527 33 88.3327 33Z" fill="white"/>
<path d="M96.3333 27.6667H92.3333C91.0533 27.6667 90 26.6133 90 25.3333V21.3333C90 20.0533 91.0533 19 92.3333 19H94.0533C94.4133 19 94.7467 19.1867 94.92 19.5067L97.2 23.5067C97.28 23.6533 97.3333 23.8267 97.3333 24V26.6667C97.3333 27.2133 96.88 27.6667 96.3333 27.6667ZM92.3333 21C92.1467 21 92 21.1467 92 21.3333V25.3333C92 25.52 92.1467 25.6667 92.3333 25.6667H95.3333V24.2667L93.4667 21H92.3333Z" fill="white"/>
<path d="M109 24H165" stroke="#9E9E9E" stroke-width="1.5" stroke-linecap="round"/>
<path d="M60.4122 59.1293H58.8611C58.8014 58.7978 58.6904 58.5062 58.528 58.2543C58.3656 58.0024 58.1667 57.7886 57.9314 57.6129C57.6961 57.4373 57.4326 57.3047 57.1409 57.2152C56.8525 57.1257 56.546 57.081 56.2211 57.081C55.6345 57.081 55.1092 57.2285 54.6452 57.5234C54.1845 57.8184 53.8199 58.2509 53.5514 58.821C53.2863 59.3911 53.1537 60.0871 53.1537 60.9091C53.1537 61.7377 53.2863 62.437 53.5514 63.0071C53.8199 63.5772 54.1861 64.008 54.6501 64.2997C55.1141 64.5914 55.6362 64.7372 56.2162 64.7372C56.5377 64.7372 56.8426 64.6941 57.1309 64.608C57.4226 64.5185 57.6861 64.3875 57.9214 64.2152C58.1568 64.0429 58.3556 63.8324 58.518 63.5838C58.6837 63.3319 58.7981 63.0436 58.8611 62.7188L60.4122 62.7237C60.3293 63.2242 60.1686 63.6849 59.93 64.1058C59.6946 64.5234 59.3914 64.8847 59.0202 65.1896C58.6523 65.4912 58.2313 65.7249 57.7574 65.8906C57.2834 66.0563 56.7664 66.1392 56.2062 66.1392C55.3246 66.1392 54.5391 65.9304 53.8497 65.5128C53.1603 65.0919 52.6167 64.4903 52.219 63.7081C51.8246 62.9259 51.6274 61.9929 51.6274 60.9091C51.6274 59.822 51.8263 58.889 52.224 58.1101C52.6217 57.3279 53.1653 56.728 53.8547 56.3104C54.5441 55.8894 55.3279 55.679 56.2062 55.679C56.7465 55.679 57.2503 55.7569 57.7176 55.9126C58.1882 56.0651 58.6108 56.2905 58.9854 56.5888C59.3599 56.8838 59.6698 57.245 59.915 57.6726C60.1603 58.0968 60.326 58.5824 60.4122 59.1293ZM63.6176 61.4659V66H62.1311V55.8182H63.5977V59.6065H63.6922C63.8712 59.1955 64.1446 58.8691 64.5125 58.6271C64.8804 58.3852 65.361 58.2642 65.9543 58.2642C66.478 58.2642 66.9353 58.3719 67.3264 58.5874C67.7209 58.8028 68.0258 59.1243 68.2412 59.5518C68.46 59.9761 68.5693 60.5064 68.5693 61.1428V66H67.0828V61.3217C67.0828 60.7616 66.9387 60.3274 66.6503 60.0192C66.3619 59.7076 65.9609 59.5518 65.4472 59.5518C65.0959 59.5518 64.781 59.6264 64.5026 59.7756C64.2275 59.9247 64.0104 60.1435 63.8513 60.4318C63.6955 60.7169 63.6176 61.0616 63.6176 61.4659ZM73.8442 66.1541C73.0918 66.1541 72.4439 65.9934 71.9003 65.6719C71.3601 65.3471 70.9424 64.8913 70.6475 64.3047C70.3558 63.7147 70.21 63.0237 70.21 62.2315C70.21 61.4493 70.3558 60.7599 70.6475 60.1634C70.9424 59.5668 71.3534 59.1011 71.8804 58.7663C72.4107 58.4316 73.0305 58.2642 73.7398 58.2642C74.1707 58.2642 74.5883 58.3355 74.9926 58.478C75.397 58.6205 75.7599 58.8442 76.0814 59.1491C76.4029 59.4541 76.6565 59.8501 76.8421 60.3374C77.0277 60.8213 77.1205 61.4096 77.1205 62.1023V62.6293H71.0502V61.5156H75.6638C75.6638 61.1245 75.5843 60.7782 75.4252 60.4766C75.2661 60.1716 75.0423 59.9313 74.754 59.7557C74.469 59.58 74.1342 59.4922 73.7497 59.4922C73.3321 59.4922 72.9675 59.5949 72.656 59.8004C72.3477 60.0026 72.1091 60.2678 71.9401 60.5959C71.7744 60.9207 71.6915 61.2737 71.6915 61.6548V62.5249C71.6915 63.0353 71.781 63.4695 71.96 63.8274C72.1423 64.1854 72.3958 64.4588 72.7206 64.6477C73.0454 64.8333 73.4249 64.9261 73.8591 64.9261C74.1408 64.9261 74.3977 64.8864 74.6297 64.8068C74.8617 64.724 75.0622 64.6013 75.2313 64.4389C75.4003 64.2765 75.5296 64.076 75.6191 63.8374L77.026 64.0909C76.9133 64.5052 76.7111 64.8681 76.4195 65.1797C76.1311 65.4879 75.7682 65.7282 75.3307 65.9006C74.8965 66.0696 74.401 66.1541 73.8442 66.1541ZM81.9864 66.1541C81.2473 66.1541 80.6109 65.9867 80.0773 65.652C79.547 65.3139 79.1394 64.8482 78.8543 64.255C78.5693 63.6617 78.4268 62.9822 78.4268 62.2166C78.4268 61.4411 78.5726 60.7566 78.8643 60.1634C79.1559 59.5668 79.5669 59.1011 80.0972 58.7663C80.6275 58.4316 81.2523 58.2642 81.9715 58.2642C82.5515 58.2642 83.0686 58.3719 83.5226 58.5874C83.9767 58.7995 84.343 59.0978 84.6214 59.4822C84.9031 59.8667 85.0705 60.3158 85.1235 60.8295H83.6768C83.5972 60.4716 83.4149 60.1634 83.1299 59.9048C82.8482 59.6463 82.4703 59.517 81.9964 59.517C81.5821 59.517 81.2191 59.6264 80.9076 59.8452C80.5993 60.0606 80.359 60.3688 80.1867 60.7699C80.0144 61.1676 79.9282 61.6383 79.9282 62.1818C79.9282 62.7386 80.0127 63.2192 80.1817 63.6236C80.3508 64.0279 80.5894 64.3411 80.8976 64.5632C81.2092 64.7853 81.5754 64.8963 81.9964 64.8963C82.2781 64.8963 82.5333 64.8449 82.762 64.7422C82.994 64.6361 83.1879 64.4853 83.3437 64.2898C83.5028 64.0942 83.6138 63.8589 83.6768 63.5838H85.1235C85.0705 64.0777 84.9097 64.5185 84.6412 64.9062C84.3728 65.294 84.0132 65.599 83.5624 65.821C83.115 66.0431 82.5896 66.1541 81.9864 66.1541ZM88.0803 63.4098L88.0704 61.5952H88.3289L91.3715 58.3636H93.1514L89.6812 62.0426H89.4475L88.0803 63.4098ZM86.7132 66V55.8182H88.1997V66H86.7132ZM91.5356 66L88.8012 62.3707L89.8254 61.3317L93.3602 66H91.5356ZM97.4083 66.1541C96.6924 66.1541 96.0676 65.9901 95.534 65.6619C95.0004 65.3338 94.5861 64.8748 94.2911 64.2848C93.9961 63.6948 93.8486 63.0054 93.8486 62.2166C93.8486 61.4245 93.9961 60.7318 94.2911 60.1385C94.5861 59.5452 95.0004 59.0845 95.534 58.7564C96.0676 58.4283 96.6924 58.2642 97.4083 58.2642C98.1242 58.2642 98.749 58.4283 99.2826 58.7564C99.8162 59.0845 100.23 59.5452 100.525 60.1385C100.82 60.7318 100.968 61.4245 100.968 62.2166C100.968 63.0054 100.82 63.6948 100.525 64.2848C100.23 64.8748 99.8162 65.3338 99.2826 65.6619C98.749 65.9901 98.1242 66.1541 97.4083 66.1541ZM97.4133 64.9062C97.8773 64.9062 98.2617 64.7836 98.5667 64.5384C98.8716 64.2931 99.097 63.9666 99.2428 63.5589C99.392 63.1513 99.4665 62.7022 99.4665 62.2116C99.4665 61.7244 99.392 61.277 99.2428 60.8693C99.097 60.4583 98.8716 60.1286 98.5667 59.88C98.2617 59.6314 97.8773 59.5071 97.4133 59.5071C96.9459 59.5071 96.5582 59.6314 96.2499 59.88C95.945 60.1286 95.718 60.4583 95.5688 60.8693C95.423 61.277 95.3501 61.7244 95.3501 62.2116C95.3501 62.7022 95.423 63.1513 95.5688 63.5589C95.718 63.9666 95.945 64.2931 96.2499 64.5384C96.5582 64.7836 96.9459 64.9062 97.4133 64.9062ZM107.465 62.8331V58.3636H108.956V66H107.494V64.6776H107.415C107.239 65.0852 106.957 65.425 106.57 65.6967C106.185 65.9652 105.706 66.0994 105.133 66.0994C104.642 66.0994 104.208 65.9917 103.83 65.7763C103.456 65.5575 103.161 65.2344 102.945 64.8068C102.733 64.3793 102.627 63.8506 102.627 63.2209V58.3636H104.114V63.0419C104.114 63.5623 104.258 63.9766 104.546 64.2848C104.835 64.593 105.209 64.7472 105.67 64.7472C105.948 64.7472 106.225 64.6776 106.5 64.5384C106.778 64.3991 107.009 64.1887 107.191 63.907C107.377 63.6252 107.468 63.2673 107.465 62.8331ZM114.518 58.3636V59.5568H110.347V58.3636H114.518ZM111.465 56.5341H112.952V63.7578C112.952 64.0462 112.995 64.2633 113.081 64.4091C113.167 64.5516 113.278 64.6494 113.414 64.7024C113.554 64.7521 113.704 64.777 113.867 64.777C113.986 64.777 114.09 64.7687 114.18 64.7521C114.269 64.7356 114.339 64.7223 114.389 64.7124L114.657 65.9403C114.571 65.9735 114.448 66.0066 114.289 66.0398C114.13 66.0762 113.931 66.0961 113.693 66.0994C113.302 66.1061 112.937 66.0365 112.599 65.8906C112.261 65.7448 111.987 65.5194 111.779 65.2145C111.57 64.9096 111.465 64.5268 111.465 64.0661V56.5341Z" fill="#9E9E9E"/>
</svg>
