<svg width="190" height="93" viewBox="0 0 190 93" fill="none" xmlns="http://www.w3.org/2000/svg">
<path d="M1 36H57" stroke="#78ABF9" stroke-width="1.5" stroke-linecap="round"/>
<rect x="60.5" y="1.5" width="69" height="69" rx="34.5" stroke="#0C68F4" stroke-width="3"/>
<path d="M97 41.5H75C74.18 41.5 73.5 40.82 73.5 40V24C73.5 18.76 77.76 14.5 83 14.5H101C101.82 14.5 102.5 15.18 102.5 16V36C102.5 39.04 100.04 41.5 97 41.5ZM76.5 38.5H97C98.38 38.5 99.5 37.38 99.5 36V17.5H83C79.42 17.5 76.5 20.42 76.5 24V38.5Z" fill="#0C68F4"/>
<path d="M109 53.5H107C106.18 53.5 105.5 52.82 105.5 52C105.5 50.62 104.38 49.5 103 49.5C101.62 49.5 100.5 50.62 100.5 52C100.5 52.82 99.82 53.5 99 53.5H91C90.18 53.5 89.5 52.82 89.5 52C89.5 50.62 88.38 49.5 87 49.5C85.62 49.5 84.5 50.62 84.5 52C84.5 52.82 83.82 53.5 83 53.5H81C76.86 53.5 73.5 50.14 73.5 46V40C73.5 39.18 74.18 38.5 75 38.5H97C98.38 38.5 99.5 37.38 99.5 36V22C99.5 21.18 100.18 20.5 101 20.5H104.68C106.66 20.5 108.48 21.56 109.46 23.28L112.88 29.26C113.14 29.72 113.14 30.3 112.88 30.76C112.62 31.22 112.12 31.5 111.58 31.5H109C108.72 31.5 108.5 31.72 108.5 32V38C108.5 38.28 108.72 38.5 109 38.5H115C115.82 38.5 116.5 39.18 116.5 40V46C116.5 50.14 113.14 53.5 109 53.5ZM108.3 50.5H109C111.48 50.5 113.5 48.48 113.5 46V41.5H109C107.08 41.5 105.5 39.92 105.5 38V32C105.5 30.08 107.06 28.5 109 28.5L106.86 24.76C106.42 23.98 105.58 23.5 104.68 23.5H102.5V36C102.5 39.04 100.04 41.5 97 41.5H76.5V46C76.5 48.48 78.52 50.5 81 50.5H81.7C82.36 48.2 84.48 46.5 87 46.5C89.52 46.5 91.64 48.2 92.3 50.5H97.72C98.38 48.2 100.5 46.5 103.02 46.5C105.54 46.5 107.64 48.2 108.3 50.5Z" fill="#0C68F4"/>
<path d="M87 57.5C83.96 57.5 81.5 55.04 81.5 52C81.5 48.96 83.96 46.5 87 46.5C90.04 46.5 92.5 48.96 92.5 52C92.5 55.04 90.04 57.5 87 57.5ZM87 49.5C85.62 49.5 84.5 50.62 84.5 52C84.5 53.38 85.62 54.5 87 54.5C88.38 54.5 89.5 53.38 89.5 52C89.5 50.62 88.38 49.5 87 49.5Z" fill="#0C68F4"/>
<path d="M103 57.5C99.96 57.5 97.5 55.04 97.5 52C97.5 48.96 99.96 46.5 103 46.5C106.04 46.5 108.5 48.96 108.5 52C108.5 55.04 106.04 57.5 103 57.5ZM103 49.5C101.62 49.5 100.5 50.62 100.5 52C100.5 53.38 101.62 54.5 103 54.5C104.38 54.5 105.5 53.38 105.5 52C105.5 50.62 104.38 49.5 103 49.5Z" fill="#0C68F4"/>
<path d="M115 41.5H109C107.08 41.5 105.5 39.92 105.5 38V32C105.5 30.08 107.08 28.5 109 28.5H111.58C112.12 28.5 112.62 28.78 112.88 29.26L116.3 35.26C116.42 35.48 116.5 35.74 116.5 36V40C116.5 40.82 115.82 41.5 115 41.5ZM109 31.5C108.72 31.5 108.5 31.72 108.5 32V38C108.5 38.28 108.72 38.5 109 38.5H113.5V36.4L110.7 31.5H109Z" fill="#0C68F4"/>
<path d="M133 36H189" stroke="#9E9E9E" stroke-width="1.5" stroke-linecap="round"/>
<path d="M72.4122 83.1293H70.8611C70.8014 82.7978 70.6904 82.5062 70.528 82.2543C70.3656 82.0024 70.1667 81.7886 69.9314 81.6129C69.6961 81.4373 69.4326 81.3047 69.1409 81.2152C68.8525 81.1257 68.546 81.081 68.2211 81.081C67.6345 81.081 67.1092 81.2285 66.6452 81.5234C66.1845 81.8184 65.8199 82.2509 65.5514 82.821C65.2863 83.3911 65.1537 84.0871 65.1537 84.9091C65.1537 85.7377 65.2863 86.437 65.5514 87.0071C65.8199 87.5772 66.1861 88.008 66.6501 88.2997C67.1141 88.5914 67.6362 88.7372 68.2162 88.7372C68.5377 88.7372 68.8426 88.6941 69.1309 88.608C69.4226 88.5185 69.6861 88.3875 69.9214 88.2152C70.1568 88.0429 70.3556 87.8324 70.518 87.5838C70.6837 87.3319 70.7981 87.0436 70.8611 86.7188L72.4122 86.7237C72.3293 87.2242 72.1686 87.6849 71.93 88.1058C71.6946 88.5234 71.3914 88.8847 71.0202 89.1896C70.6523 89.4912 70.2313 89.7249 69.7574 89.8906C69.2834 90.0563 68.7664 90.1392 68.2062 90.1392C67.3246 90.1392 66.5391 89.9304 65.8497 89.5128C65.1603 89.0919 64.6167 88.4903 64.219 87.7081C63.8246 86.9259 63.6274 85.9929 63.6274 84.9091C63.6274 83.822 63.8263 82.889 64.224 82.1101C64.6217 81.3279 65.1653 80.728 65.8547 80.3104C66.5441 79.8894 67.3279 79.679 68.2062 79.679C68.7465 79.679 69.2503 79.7569 69.7176 79.9126C70.1882 80.0651 70.6108 80.2905 70.9854 80.5888C71.3599 80.8838 71.6698 81.245 71.915 81.6726C72.1603 82.0968 72.326 82.5824 72.4122 83.1293ZM75.6176 85.4659V90H74.1311V79.8182H75.5977V83.6065H75.6922C75.8712 83.1955 76.1446 82.8691 76.5125 82.6271C76.8804 82.3852 77.361 82.2642 77.9543 82.2642C78.478 82.2642 78.9353 82.3719 79.3264 82.5874C79.7209 82.8028 80.0258 83.1243 80.2412 83.5518C80.46 83.9761 80.5693 84.5064 80.5693 85.1428V90H79.0828V85.3217C79.0828 84.7616 78.9387 84.3274 78.6503 84.0192C78.3619 83.7076 77.9609 83.5518 77.4472 83.5518C77.0959 83.5518 76.781 83.6264 76.5026 83.7756C76.2275 83.9247 76.0104 84.1435 75.8513 84.4318C75.6955 84.7169 75.6176 85.0616 75.6176 85.4659ZM85.8442 90.1541C85.0918 90.1541 84.4439 89.9934 83.9003 89.6719C83.3601 89.3471 82.9424 88.8913 82.6475 88.3047C82.3558 87.7147 82.21 87.0237 82.21 86.2315C82.21 85.4493 82.3558 84.7599 82.6475 84.1634C82.9424 83.5668 83.3534 83.1011 83.8804 82.7663C84.4107 82.4316 85.0305 82.2642 85.7398 82.2642C86.1707 82.2642 86.5883 82.3355 86.9926 82.478C87.397 82.6205 87.7599 82.8442 88.0814 83.1491C88.4029 83.4541 88.6565 83.8501 88.8421 84.3374C89.0277 84.8213 89.1205 85.4096 89.1205 86.1023V86.6293H83.0502V85.5156H87.6638C87.6638 85.1245 87.5843 84.7782 87.4252 84.4766C87.2661 84.1716 87.0423 83.9313 86.754 83.7557C86.469 83.58 86.1342 83.4922 85.7497 83.4922C85.3321 83.4922 84.9675 83.5949 84.656 83.8004C84.3477 84.0026 84.1091 84.2678 83.9401 84.5959C83.7744 84.9207 83.6915 85.2737 83.6915 85.6548V86.5249C83.6915 87.0353 83.781 87.4695 83.96 87.8274C84.1423 88.1854 84.3958 88.4588 84.7206 88.6477C85.0454 88.8333 85.4249 88.9261 85.8591 88.9261C86.1408 88.9261 86.3977 88.8864 86.6297 88.8068C86.8617 88.724 87.0622 88.6013 87.2313 88.4389C87.4003 88.2765 87.5296 88.076 87.6191 87.8374L89.026 88.0909C88.9133 88.5052 88.7111 88.8681 88.4195 89.1797C88.1311 89.4879 87.7682 89.7282 87.3307 89.9006C86.8965 90.0696 86.401 90.1541 85.8442 90.1541ZM93.9864 90.1541C93.2473 90.1541 92.6109 89.9867 92.0773 89.652C91.547 89.3139 91.1394 88.8482 90.8543 88.255C90.5693 87.6617 90.4268 86.9822 90.4268 86.2166C90.4268 85.4411 90.5726 84.7566 90.8643 84.1634C91.1559 83.5668 91.5669 83.1011 92.0972 82.7663C92.6275 82.4316 93.2523 82.2642 93.9715 82.2642C94.5515 82.2642 95.0686 82.3719 95.5226 82.5874C95.9767 82.7995 96.343 83.0978 96.6214 83.4822C96.9031 83.8667 97.0705 84.3158 97.1235 84.8295H95.6768C95.5972 84.4716 95.4149 84.1634 95.1299 83.9048C94.8482 83.6463 94.4703 83.517 93.9964 83.517C93.5821 83.517 93.2191 83.6264 92.9076 83.8452C92.5993 84.0606 92.359 84.3688 92.1867 84.7699C92.0144 85.1676 91.9282 85.6383 91.9282 86.1818C91.9282 86.7386 92.0127 87.2192 92.1817 87.6236C92.3508 88.0279 92.5894 88.3411 92.8976 88.5632C93.2092 88.7853 93.5754 88.8963 93.9964 88.8963C94.2781 88.8963 94.5333 88.8449 94.762 88.7422C94.994 88.6361 95.1879 88.4853 95.3437 88.2898C95.5028 88.0942 95.6138 87.8589 95.6768 87.5838H97.1235C97.0705 88.0777 96.9097 88.5185 96.6412 88.9062C96.3728 89.294 96.0132 89.599 95.5624 89.821C95.115 90.0431 94.5896 90.1541 93.9864 90.1541ZM100.08 87.4098L100.07 85.5952H100.329L103.372 82.3636H105.151L101.681 86.0426H101.448L100.08 87.4098ZM98.7132 90V79.8182H100.2V90H98.7132ZM103.536 90L100.801 86.3707L101.825 85.3317L105.36 90H103.536ZM109.408 90.1541C108.692 90.1541 108.068 89.9901 107.534 89.6619C107 89.3338 106.586 88.8748 106.291 88.2848C105.996 87.6948 105.849 87.0054 105.849 86.2166C105.849 85.4245 105.996 84.7318 106.291 84.1385C106.586 83.5452 107 83.0845 107.534 82.7564C108.068 82.4283 108.692 82.2642 109.408 82.2642C110.124 82.2642 110.749 82.4283 111.283 82.7564C111.816 83.0845 112.23 83.5452 112.525 84.1385C112.82 84.7318 112.968 85.4245 112.968 86.2166C112.968 87.0054 112.82 87.6948 112.525 88.2848C112.23 88.8748 111.816 89.3338 111.283 89.6619C110.749 89.9901 110.124 90.1541 109.408 90.1541ZM109.413 88.9062C109.877 88.9062 110.262 88.7836 110.567 88.5384C110.872 88.2931 111.097 87.9666 111.243 87.5589C111.392 87.1513 111.467 86.7022 111.467 86.2116C111.467 85.7244 111.392 85.277 111.243 84.8693C111.097 84.4583 110.872 84.1286 110.567 83.88C110.262 83.6314 109.877 83.5071 109.413 83.5071C108.946 83.5071 108.558 83.6314 108.25 83.88C107.945 84.1286 107.718 84.4583 107.569 84.8693C107.423 85.277 107.35 85.7244 107.35 86.2116C107.35 86.7022 107.423 87.1513 107.569 87.5589C107.718 87.9666 107.945 88.2931 108.25 88.5384C108.558 88.7836 108.946 88.9062 109.413 88.9062ZM119.465 86.8331V82.3636H120.956V90H119.494V88.6776H119.415C119.239 89.0852 118.957 89.425 118.57 89.6967C118.185 89.9652 117.706 90.0994 117.133 90.0994C116.642 90.0994 116.208 89.9917 115.83 89.7763C115.456 89.5575 115.161 89.2344 114.945 88.8068C114.733 88.3793 114.627 87.8506 114.627 87.2209V82.3636H116.114V87.0419C116.114 87.5623 116.258 87.9766 116.546 88.2848C116.835 88.593 117.209 88.7472 117.67 88.7472C117.948 88.7472 118.225 88.6776 118.5 88.5384C118.778 88.3991 119.009 88.1887 119.191 87.907C119.377 87.6252 119.468 87.2673 119.465 86.8331ZM126.518 82.3636V83.5568H122.347V82.3636H126.518ZM123.465 80.5341H124.952V87.7578C124.952 88.0462 124.995 88.2633 125.081 88.4091C125.167 88.5516 125.278 88.6494 125.414 88.7024C125.554 88.7521 125.704 88.777 125.867 88.777C125.986 88.777 126.09 88.7687 126.18 88.7521C126.269 88.7356 126.339 88.7223 126.389 88.7124L126.657 89.9403C126.571 89.9735 126.448 90.0066 126.289 90.0398C126.13 90.0762 125.931 90.0961 125.693 90.0994C125.302 90.1061 124.937 90.0365 124.599 89.8906C124.261 89.7448 123.987 89.5194 123.779 89.2145C123.57 88.9096 123.465 88.5268 123.465 88.0661V80.5341Z" fill="#0C68F4"/>
</svg>
