<svg width="165" height="69" viewBox="0 0 165 69" fill="none" xmlns="http://www.w3.org/2000/svg">
<path d="M1 24H57" stroke="#9E9E9E" stroke-width="1.5" stroke-linecap="round"/>
<rect x="59" width="48" height="48" rx="24" fill="#9E9E9E"/>
<path d="M96.3327 20.3333H69.666C69.1193 20.3333 68.666 19.8799 68.666 19.3333C68.666 18.7866 69.1193 18.3333 69.666 18.3333H96.3327C96.8794 18.3333 97.3327 18.7866 97.3327 19.3333C97.3327 19.8799 96.8794 20.3333 96.3327 20.3333Z" fill="white"/>
<path d="M77.6667 31H75C74.4533 31 74 30.5467 74 30C74 29.4533 74.4533 29 75 29H77.6667C78.2133 29 78.6667 29.4533 78.6667 30C78.6667 30.5467 78.2133 31 77.6667 31Z" fill="white"/>
<path d="M86.3333 31H81C80.4533 31 80 30.5467 80 30C80 29.4533 80.4533 29 81 29H86.3333C86.88 29 87.3333 29.4533 87.3333 30C87.3333 30.5467 86.88 31 86.3333 31Z" fill="white"/>
<path d="M90.4127 36.3334H75.586C70.2793 36.3334 68.666 34.7334 68.666 29.4801V18.5201C68.666 13.2667 70.2793 11.6667 75.586 11.6667H90.3993C95.706 11.6667 97.3193 13.2667 97.3193 18.5201V29.4667C97.3327 34.7334 95.7193 36.3334 90.4127 36.3334ZM75.586 13.6667C71.3993 13.6667 70.666 14.3867 70.666 18.5201V29.4667C70.666 33.6001 71.3993 34.3201 75.586 34.3201H90.3993C94.586 34.3201 95.3193 33.6001 95.3193 29.4667V18.5201C95.3193 14.3867 94.586 13.6667 90.3993 13.6667H75.586Z" fill="white"/>
<path d="M54.7788 66V55.8182H58.408C59.2002 55.8182 59.8564 55.9624 60.3768 56.2507C60.8971 56.5391 61.2866 56.9335 61.5451 57.4339C61.8036 57.9311 61.9329 58.4912 61.9329 59.1143C61.9329 59.7408 61.802 60.3042 61.5401 60.8047C61.2816 61.3018 60.8905 61.6963 60.3668 61.9879C59.8465 62.2763 59.1919 62.4205 58.4031 62.4205H55.9073V61.1179H58.2638C58.7643 61.1179 59.1703 61.0317 59.4819 60.8594C59.7934 60.6837 60.0221 60.4451 60.168 60.1435C60.3138 59.8419 60.3867 59.4988 60.3867 59.1143C60.3867 58.7299 60.3138 58.3885 60.168 58.0902C60.0221 57.7919 59.7918 57.5582 59.4769 57.3892C59.1654 57.2202 58.7544 57.1357 58.244 57.1357H56.315V66H54.7788ZM65.7685 66.169C65.2846 66.169 64.8471 66.0795 64.456 65.9006C64.0649 65.7183 63.755 65.4548 63.5263 65.1101C63.3009 64.7654 63.1882 64.3428 63.1882 63.8423C63.1882 63.4115 63.2711 63.0568 63.4368 62.7784C63.6025 62.5 63.8262 62.2796 64.108 62.1172C64.3897 61.9548 64.7045 61.8321 65.0526 61.7493C65.4006 61.6664 65.7552 61.6035 66.1165 61.5604C66.5739 61.5073 66.9451 61.4643 67.2301 61.4311C67.5152 61.3946 67.7223 61.3366 67.8516 61.2571C67.9808 61.1776 68.0455 61.0483 68.0455 60.8693V60.8345C68.0455 60.4003 67.9228 60.0639 67.6776 59.8253C67.4356 59.5866 67.0743 59.4673 66.5938 59.4673C66.0933 59.4673 65.6989 59.5784 65.4105 59.8004C65.1255 60.0192 64.9283 60.2628 64.8189 60.5312L63.4219 60.2131C63.5876 59.7491 63.8295 59.3745 64.1477 59.0895C64.4692 58.8011 64.8388 58.5923 65.2564 58.4631C65.674 58.3305 66.1132 58.2642 66.5739 58.2642C66.8788 58.2642 67.2019 58.3007 67.5433 58.3736C67.888 58.4432 68.2095 58.5724 68.5078 58.7614C68.8094 58.9503 69.0563 59.2204 69.2486 59.5717C69.4408 59.9197 69.5369 60.3722 69.5369 60.929V66H68.0852V64.956H68.0256C67.9295 65.1482 67.7853 65.3371 67.593 65.5227C67.4008 65.7083 67.1539 65.8625 66.8523 65.9851C66.5507 66.1077 66.1894 66.169 65.7685 66.169ZM66.0916 64.9759C66.5026 64.9759 66.8539 64.8946 67.1456 64.7322C67.4406 64.5698 67.6643 64.3577 67.8168 64.0959C67.9725 63.8307 68.0504 63.5473 68.0504 63.2457V62.2614C67.9974 62.3144 67.8946 62.3641 67.7422 62.4105C67.593 62.4536 67.4223 62.4917 67.2301 62.5249C67.0379 62.5547 66.8506 62.5829 66.6683 62.6094C66.486 62.6326 66.3336 62.6525 66.2109 62.669C65.9226 62.7055 65.6591 62.7668 65.4205 62.853C65.1851 62.9392 64.9962 63.0634 64.8537 63.2259C64.7145 63.3849 64.6449 63.5971 64.6449 63.8622C64.6449 64.2301 64.7808 64.5085 65.0526 64.6974C65.3243 64.883 65.6707 64.9759 66.0916 64.9759ZM72.1831 68.8636C71.961 68.8636 71.7588 68.8454 71.5765 68.8089C71.3942 68.7758 71.2583 68.7393 71.1689 68.6996L71.5268 67.4815C71.7986 67.5545 72.0405 67.5859 72.2527 67.576C72.4648 67.5661 72.652 67.4865 72.8145 67.3374C72.9802 67.1882 73.126 66.9446 73.252 66.6065L73.4359 66.0994L70.6419 58.3636H72.2328L74.1667 64.2898H74.2463L76.1802 58.3636H77.7761L74.6291 67.0192C74.4833 67.4169 74.2976 67.7533 74.0723 68.0284C73.8469 68.3068 73.5784 68.5156 73.2669 68.6548C72.9553 68.794 72.594 68.8636 72.1831 68.8636ZM79.1731 66V58.3636H80.6V59.6065H80.6944C80.8535 59.1856 81.1137 58.8575 81.475 58.6222C81.8362 58.3835 82.2688 58.2642 82.7725 58.2642C83.283 58.2642 83.7105 58.3835 84.0552 58.6222C84.4032 58.8608 84.6601 59.1889 84.8258 59.6065H84.9054C85.0877 59.1989 85.3777 58.8741 85.7754 58.6321C86.1731 58.3868 86.6471 58.2642 87.1973 58.2642C87.89 58.2642 88.4551 58.4813 88.8926 58.9155C89.3334 59.3497 89.5538 60.0043 89.5538 60.8793V66H88.0673V61.0185C88.0673 60.5014 87.9264 60.1269 87.6447 59.8949C87.363 59.6629 87.0266 59.5469 86.6355 59.5469C86.1516 59.5469 85.7754 59.696 85.5069 59.9943C85.2385 60.2893 85.1042 60.6688 85.1042 61.1328V66H83.6227V60.924C83.6227 60.5097 83.4934 60.1766 83.2349 59.9247C82.9764 59.6728 82.64 59.5469 82.2257 59.5469C81.944 59.5469 81.6838 59.6214 81.4451 59.7706C81.2098 59.9164 81.0192 60.1203 80.8734 60.3821C80.7309 60.6439 80.6596 60.9472 80.6596 61.2919V66H79.1731ZM94.8374 66.1541C94.085 66.1541 93.437 65.9934 92.8935 65.6719C92.3532 65.3471 91.9356 64.8913 91.6406 64.3047C91.349 63.7147 91.2031 63.0237 91.2031 62.2315C91.2031 61.4493 91.349 60.7599 91.6406 60.1634C91.9356 59.5668 92.3466 59.1011 92.8736 58.7663C93.4039 58.4316 94.0237 58.2642 94.733 58.2642C95.1638 58.2642 95.5814 58.3355 95.9858 58.478C96.3902 58.6205 96.7531 58.8442 97.0746 59.1491C97.3961 59.4541 97.6496 59.8501 97.8352 60.3374C98.0208 60.8213 98.1136 61.4096 98.1136 62.1023V62.6293H92.0433V61.5156H96.657C96.657 61.1245 96.5774 60.7782 96.4183 60.4766C96.2592 60.1716 96.0355 59.9313 95.7472 59.7557C95.4621 59.58 95.1274 59.4922 94.7429 59.4922C94.3253 59.4922 93.9607 59.5949 93.6491 59.8004C93.3409 60.0026 93.1023 60.2678 92.9332 60.5959C92.7675 60.9207 92.6847 61.2737 92.6847 61.6548V62.5249C92.6847 63.0353 92.7741 63.4695 92.9531 63.8274C93.1354 64.1854 93.389 64.4588 93.7138 64.6477C94.0386 64.8333 94.4181 64.9261 94.8523 64.9261C95.134 64.9261 95.3909 64.8864 95.6229 64.8068C95.8549 64.724 96.0554 64.6013 96.2244 64.4389C96.3935 64.2765 96.5227 64.076 96.6122 63.8374L98.0192 64.0909C97.9065 64.5052 97.7043 64.8681 97.4126 65.1797C97.1243 65.4879 96.7614 65.7282 96.3239 65.9006C95.8897 66.0696 95.3942 66.1541 94.8374 66.1541ZM101.249 61.4659V66H99.763V58.3636H101.19V59.6065H101.284C101.46 59.2022 101.735 58.8774 102.11 58.6321C102.487 58.3868 102.963 58.2642 103.536 58.2642C104.057 58.2642 104.512 58.3736 104.904 58.5923C105.295 58.8078 105.598 59.1293 105.813 59.5568C106.029 59.9844 106.137 60.513 106.137 61.1428V66H104.65V61.3217C104.65 60.7682 104.506 60.3357 104.218 60.0241C103.929 59.7093 103.533 59.5518 103.029 59.5518C102.685 59.5518 102.378 59.6264 102.11 59.7756C101.844 59.9247 101.634 60.1435 101.478 60.4318C101.326 60.7169 101.249 61.0616 101.249 61.4659ZM111.695 58.3636V59.5568H107.524V58.3636H111.695ZM108.642 56.5341H110.129V63.7578C110.129 64.0462 110.172 64.2633 110.258 64.4091C110.344 64.5516 110.455 64.6494 110.591 64.7024C110.73 64.7521 110.881 64.777 111.044 64.777C111.163 64.777 111.267 64.7687 111.357 64.7521C111.446 64.7356 111.516 64.7223 111.566 64.7124L111.834 65.9403C111.748 65.9735 111.625 66.0066 111.466 66.0398C111.307 66.0762 111.108 66.0961 110.869 66.0994C110.478 66.1061 110.114 66.0365 109.776 65.8906C109.438 65.7448 109.164 65.5194 108.955 65.2145C108.747 64.9096 108.642 64.5268 108.642 64.0661V56.5341Z" fill="#9E9E9E"/>
</svg>
