<svg width="189" height="93" viewBox="0 0 189 93" fill="none" xmlns="http://www.w3.org/2000/svg">
<path d="M1 36H57" stroke="#78ABF9" stroke-width="1.5" stroke-linecap="round"/>
<rect x="60.5" y="1.5" width="69" height="69" rx="34.5" stroke="#0C68F4" stroke-width="3"/>
<path d="M115 30.5H75C74.18 30.5 73.5 29.82 73.5 29C73.5 28.18 74.18 27.5 75 27.5H115C115.82 27.5 116.5 28.18 116.5 29C116.5 29.82 115.82 30.5 115 30.5Z" fill="#0C68F4"/>
<path d="M87 46.5H83C82.18 46.5 81.5 45.82 81.5 45C81.5 44.18 82.18 43.5 83 43.5H87C87.82 43.5 88.5 44.18 88.5 45C88.5 45.82 87.82 46.5 87 46.5Z" fill="#0C68F4"/>
<path d="M100 46.5H92C91.18 46.5 90.5 45.82 90.5 45C90.5 44.18 91.18 43.5 92 43.5H100C100.82 43.5 101.5 44.18 101.5 45C101.5 45.82 100.82 46.5 100 46.5Z" fill="#0C68F4"/>
<path d="M106.12 54.5H83.88C75.92 54.5 73.5 52.1 73.5 44.22V27.78C73.5 19.9 75.92 17.5 83.88 17.5H106.1C114.06 17.5 116.48 19.9 116.48 27.78V44.2C116.5 52.1 114.08 54.5 106.12 54.5ZM83.88 20.5C77.6 20.5 76.5 21.58 76.5 27.78V44.2C76.5 50.4 77.6 51.48 83.88 51.48H106.1C112.38 51.48 113.48 50.4 113.48 44.2V27.78C113.48 21.58 112.38 20.5 106.1 20.5H83.88Z" fill="#0C68F4"/>
<path d="M66.7788 90V79.8182H70.408C71.2002 79.8182 71.8564 79.9624 72.3768 80.2507C72.8971 80.5391 73.2866 80.9335 73.5451 81.4339C73.8036 81.9311 73.9329 82.4912 73.9329 83.1143C73.9329 83.7408 73.802 84.3042 73.5401 84.8047C73.2816 85.3018 72.8905 85.6963 72.3668 85.9879C71.8465 86.2763 71.1919 86.4205 70.4031 86.4205H67.9073V85.1179H70.2638C70.7643 85.1179 71.1703 85.0317 71.4819 84.8594C71.7934 84.6837 72.0221 84.4451 72.168 84.1435C72.3138 83.8419 72.3867 83.4988 72.3867 83.1143C72.3867 82.7299 72.3138 82.3885 72.168 82.0902C72.0221 81.7919 71.7918 81.5582 71.4769 81.3892C71.1654 81.2202 70.7544 81.1357 70.244 81.1357H68.315V90H66.7788ZM77.7685 90.169C77.2846 90.169 76.8471 90.0795 76.456 89.9006C76.0649 89.7183 75.755 89.4548 75.5263 89.1101C75.3009 88.7654 75.1882 88.3428 75.1882 87.8423C75.1882 87.4115 75.2711 87.0568 75.4368 86.7784C75.6025 86.5 75.8262 86.2796 76.108 86.1172C76.3897 85.9548 76.7045 85.8321 77.0526 85.7493C77.4006 85.6664 77.7552 85.6035 78.1165 85.5604C78.5739 85.5073 78.9451 85.4643 79.2301 85.4311C79.5152 85.3946 79.7223 85.3366 79.8516 85.2571C79.9808 85.1776 80.0455 85.0483 80.0455 84.8693V84.8345C80.0455 84.4003 79.9228 84.0639 79.6776 83.8253C79.4356 83.5866 79.0743 83.4673 78.5938 83.4673C78.0933 83.4673 77.6989 83.5784 77.4105 83.8004C77.1255 84.0192 76.9283 84.2628 76.8189 84.5312L75.4219 84.2131C75.5876 83.7491 75.8295 83.3745 76.1477 83.0895C76.4692 82.8011 76.8388 82.5923 77.2564 82.4631C77.674 82.3305 78.1132 82.2642 78.5739 82.2642C78.8788 82.2642 79.2019 82.3007 79.5433 82.3736C79.888 82.4432 80.2095 82.5724 80.5078 82.7614C80.8094 82.9503 81.0563 83.2204 81.2486 83.5717C81.4408 83.9197 81.5369 84.3722 81.5369 84.929V90H80.0852V88.956H80.0256C79.9295 89.1482 79.7853 89.3371 79.593 89.5227C79.4008 89.7083 79.1539 89.8625 78.8523 89.9851C78.5507 90.1077 78.1894 90.169 77.7685 90.169ZM78.0916 88.9759C78.5026 88.9759 78.8539 88.8946 79.1456 88.7322C79.4406 88.5698 79.6643 88.3577 79.8168 88.0959C79.9725 87.8307 80.0504 87.5473 80.0504 87.2457V86.2614C79.9974 86.3144 79.8946 86.3641 79.7422 86.4105C79.593 86.4536 79.4223 86.4917 79.2301 86.5249C79.0379 86.5547 78.8506 86.5829 78.6683 86.6094C78.486 86.6326 78.3336 86.6525 78.2109 86.669C77.9226 86.7055 77.6591 86.7668 77.4205 86.853C77.1851 86.9392 76.9962 87.0634 76.8537 87.2259C76.7145 87.3849 76.6449 87.5971 76.6449 87.8622C76.6449 88.2301 76.7808 88.5085 77.0526 88.6974C77.3243 88.883 77.6707 88.9759 78.0916 88.9759ZM84.1831 92.8636C83.961 92.8636 83.7588 92.8454 83.5765 92.8089C83.3942 92.7758 83.2583 92.7393 83.1689 92.6996L83.5268 91.4815C83.7986 91.5545 84.0405 91.5859 84.2527 91.576C84.4648 91.5661 84.652 91.4865 84.8145 91.3374C84.9802 91.1882 85.126 90.9446 85.252 90.6065L85.4359 90.0994L82.6419 82.3636H84.2328L86.1667 88.2898H86.2463L88.1802 82.3636H89.7761L86.6291 91.0192C86.4833 91.4169 86.2976 91.7533 86.0723 92.0284C85.8469 92.3068 85.5784 92.5156 85.2669 92.6548C84.9553 92.794 84.594 92.8636 84.1831 92.8636ZM91.1731 90V82.3636H92.6V83.6065H92.6944C92.8535 83.1856 93.1137 82.8575 93.475 82.6222C93.8362 82.3835 94.2688 82.2642 94.7725 82.2642C95.283 82.2642 95.7105 82.3835 96.0552 82.6222C96.4032 82.8608 96.6601 83.1889 96.8258 83.6065H96.9054C97.0877 83.1989 97.3777 82.8741 97.7754 82.6321C98.1731 82.3868 98.6471 82.2642 99.1973 82.2642C99.89 82.2642 100.455 82.4813 100.893 82.9155C101.333 83.3497 101.554 84.0043 101.554 84.8793V90H100.067V85.0185C100.067 84.5014 99.9264 84.1269 99.6447 83.8949C99.363 83.6629 99.0266 83.5469 98.6355 83.5469C98.1516 83.5469 97.7754 83.696 97.5069 83.9943C97.2385 84.2893 97.1042 84.6688 97.1042 85.1328V90H95.6227V84.924C95.6227 84.5097 95.4934 84.1766 95.2349 83.9247C94.9764 83.6728 94.64 83.5469 94.2257 83.5469C93.944 83.5469 93.6838 83.6214 93.4451 83.7706C93.2098 83.9164 93.0192 84.1203 92.8734 84.3821C92.7309 84.6439 92.6596 84.9472 92.6596 85.2919V90H91.1731ZM106.837 90.1541C106.085 90.1541 105.437 89.9934 104.893 89.6719C104.353 89.3471 103.936 88.8913 103.641 88.3047C103.349 87.7147 103.203 87.0237 103.203 86.2315C103.203 85.4493 103.349 84.7599 103.641 84.1634C103.936 83.5668 104.347 83.1011 104.874 82.7663C105.404 82.4316 106.024 82.2642 106.733 82.2642C107.164 82.2642 107.581 82.3355 107.986 82.478C108.39 82.6205 108.753 82.8442 109.075 83.1491C109.396 83.4541 109.65 83.8501 109.835 84.3374C110.021 84.8213 110.114 85.4096 110.114 86.1023V86.6293H104.043V85.5156H108.657C108.657 85.1245 108.577 84.7782 108.418 84.4766C108.259 84.1716 108.036 83.9313 107.747 83.7557C107.462 83.58 107.127 83.4922 106.743 83.4922C106.325 83.4922 105.961 83.5949 105.649 83.8004C105.341 84.0026 105.102 84.2678 104.933 84.5959C104.768 84.9207 104.685 85.2737 104.685 85.6548V86.5249C104.685 87.0353 104.774 87.4695 104.953 87.8274C105.135 88.1854 105.389 88.4588 105.714 88.6477C106.039 88.8333 106.418 88.9261 106.852 88.9261C107.134 88.9261 107.391 88.8864 107.623 88.8068C107.855 88.724 108.055 88.6013 108.224 88.4389C108.393 88.2765 108.523 88.076 108.612 87.8374L110.019 88.0909C109.906 88.5052 109.704 88.8681 109.413 89.1797C109.124 89.4879 108.761 89.7282 108.324 89.9006C107.89 90.0696 107.394 90.1541 106.837 90.1541ZM113.249 85.4659V90H111.763V82.3636H113.19V83.6065H113.284C113.46 83.2022 113.735 82.8774 114.11 82.6321C114.487 82.3868 114.963 82.2642 115.536 82.2642C116.057 82.2642 116.512 82.3736 116.904 82.5923C117.295 82.8078 117.598 83.1293 117.813 83.5568C118.029 83.9844 118.137 84.513 118.137 85.1428V90H116.65V85.3217C116.65 84.7682 116.506 84.3357 116.218 84.0241C115.929 83.7093 115.533 83.5518 115.029 83.5518C114.685 83.5518 114.378 83.6264 114.11 83.7756C113.844 83.9247 113.634 84.1435 113.478 84.4318C113.326 84.7169 113.249 85.0616 113.249 85.4659ZM123.695 82.3636V83.5568H119.524V82.3636H123.695ZM120.642 80.5341H122.129V87.7578C122.129 88.0462 122.172 88.2633 122.258 88.4091C122.344 88.5516 122.455 88.6494 122.591 88.7024C122.73 88.7521 122.881 88.777 123.044 88.777C123.163 88.777 123.267 88.7687 123.357 88.7521C123.446 88.7356 123.516 88.7223 123.566 88.7124L123.834 89.9403C123.748 89.9735 123.625 90.0066 123.466 90.0398C123.307 90.0762 123.108 90.0961 122.869 90.0994C122.478 90.1061 122.114 90.0365 121.776 89.8906C121.438 89.7448 121.164 89.5194 120.955 89.2145C120.747 88.9096 120.642 88.5268 120.642 88.0661V80.5341Z" fill="#0C68F4"/>
</svg>
