<svg width="16" height="17" viewBox="0 0 16 17" fill="none" xmlns="http://www.w3.org/2000/svg">
<path d="M14.0004 4.98657C13.9871 4.98657 13.9671 4.98657 13.9471 4.98657C10.4204 4.63324 6.90043 4.4999 3.41377 4.85324L2.05377 4.98657C1.77377 5.01324 1.5271 4.81324 1.50043 4.53324C1.47377 4.25324 1.67377 4.01324 1.9471 3.98657L3.3071 3.85324C6.85377 3.49324 10.4471 3.63324 14.0471 3.98657C14.3204 4.01324 14.5204 4.2599 14.4938 4.53324C14.4738 4.79324 14.2538 4.98657 14.0004 4.98657Z" fill="#C91433"/>
<path d="M5.66651 4.31325C5.63984 4.31325 5.61318 4.31325 5.57984 4.30659C5.31318 4.25992 5.12651 3.99992 5.17318 3.73325L5.31984 2.85992C5.42651 2.21992 5.57318 1.33325 7.12651 1.33325H8.87318C10.4332 1.33325 10.5798 2.25325 10.6798 2.86659L10.8265 3.73325C10.8732 4.00659 10.6865 4.26659 10.4198 4.30659C10.1465 4.35325 9.88651 4.16659 9.84651 3.89992L9.69984 3.03325C9.60651 2.45325 9.58651 2.33992 8.87984 2.33992H7.13318C6.42651 2.33992 6.41318 2.43325 6.31318 3.02659L6.15984 3.89325C6.11984 4.13992 5.90651 4.31325 5.66651 4.31325Z" fill="#C91433"/>
<path d="M10.1396 15.6667H5.85961C3.53294 15.6667 3.43961 14.3801 3.36627 13.3401L2.93294 6.62672C2.91294 6.35338 3.12627 6.11338 3.39961 6.09338C3.67961 6.08005 3.91294 6.28672 3.93294 6.56005L4.36627 13.2734C4.43961 14.2867 4.46627 14.6667 5.85961 14.6667H10.1396C11.5396 14.6667 11.5663 14.2867 11.6329 13.2734L12.0663 6.56005C12.0863 6.28672 12.3263 6.08005 12.5996 6.09338C12.8729 6.11338 13.0863 6.34672 13.0663 6.62672L12.6329 13.3401C12.5596 14.3801 12.4663 15.6667 10.1396 15.6667Z" fill="#C91433"/>
<path d="M9.10672 12H6.88672C6.61339 12 6.38672 11.7733 6.38672 11.5C6.38672 11.2267 6.61339 11 6.88672 11H9.10672C9.38005 11 9.60672 11.2267 9.60672 11.5C9.60672 11.7733 9.38005 12 9.10672 12Z" fill="#C91433"/>
<path d="M9.66732 9.33325H6.33398C6.06065 9.33325 5.83398 9.10658 5.83398 8.83325C5.83398 8.55992 6.06065 8.33325 6.33398 8.33325H9.66732C9.94065 8.33325 10.1673 8.55992 10.1673 8.83325C10.1673 9.10658 9.94065 9.33325 9.66732 9.33325Z" fill="#C91433"/>
</svg>
